# xmcd
#
# Track frame offsets:
# 150
# 12490
# 25170
# 37080
# 49737
# 63560
# 76822
# 90820
# 103852
# 116045
# 128147
# 140072
# 151697
# 164490
# 173982
# 186147
# 201222
# 219025
#
# Disc length: 3099 seconds
#
# Revision: 0
# Processed by: cddbd v1.5.1PL0 Copyright (c) Steve Scherf et al.
# Submitted via: plextools 2.18
#
DISCID=f10c1912
DTITLE=Sister Rosetta Tharpe - Complete/Integrale, Vol.1 (1938-43), CD2
DYEAR=1998
DGENRE=Gospel
TTITLE0=Sister Rosetta Tharpe - Shout Sister Shout
TTITLE1=Sister Rosetta Tharpe - Rock Me
TTITLE2=Sister Rosetta Tharpe - That's All
TTITLE3=Sister Rosetta Tharpe - Just A Closer Walk With Thee
TTITLE4=Sister Rosetta Tharpe - Precious Lord, Hold My Hand
TTITLE5=Sister Rosetta Tharpe - I'm In His Care
TTITLE6=Sister Rosetta Tharpe - Nobody's Fault But Mine
TTITLE7=Sister Rosetta Tharpe - I Want A Tall Skinny Papa
TTITLE8=Sister Rosetta Tharpe - What He Done For Me
TTITLE9=Sister Rosetta Tharpe - I Want Jesus To Walk Around My Beside
TTITLE10=Sister Rosetta Tharpe - All Over This World
TTITLE11=Sister Rosetta Tharpe - Pure Religion
TTITLE12=Sister Rosetta Tharpe - Rock Me
TTITLE13=Sister Rosetta Tharpe - That's All
TTITLE14=Sister Rosetta Tharpe - Trouble In Mind
TTITLE15=Sister Rosetta Tharpe - Rock Daniel
TTITLE16=Sister Rosetta Tharpe - Down By The Riverside
TTITLE17=Sister Rosetta Tharpe - Tall Skinny Papa
EXTD=Fremeaux and Associes FA 1301/2
EXTT0=
EXTT1=
EXTT2=
EXTT3=
EXTT4=
EXTT5=
EXTT6=
EXTT7=
EXTT8=
EXTT9=
EXTT10=
EXTT11=
EXTT12=
EXTT13=
EXTT14=
EXTT15=
EXTT16=
EXTT17=
PLAYORDER=
